{"title":"Eega (2012) Telugu Movie DVDScr NEW SOURCE XviD - Exclusive","uid":7448114,"size":730614210,"categoryP":"video","categoryS":"movies","magnet":"?xt=urn:btih:61547ed09c2725e259d18ae3989ff4448229d986&amp;dn=Eega+%282012%29+Telugu+Movie+DVDScr+NEW+SOURCE+XviD+-+Exclusive&amp;tr=udp%3A%2F%2Ftracker.openbittorrent.com%3A80&amp;tr=udp%3A%2F%2Fopen.demonii.com%3A1337&amp;tr=udp%3A%2F%2Ftracker.coppersurfer.tk%3A6969&amp;tr=udp%3A%2F%2Fexodus.desync.com%3A6969","seeders":0,"leechers":1,"uploader":"tykoon123","files":-1,"time":1342432252,"description":"Poster: &lt;a href=&quot;\nhttp://imgh.us/ssrajamouli+eega+hd+wallpapers+01+252892529.jpg&quot; rel=&quot;nofollow&quot; target=&quot;_NEW&quot;&gt;\nhttp://imgh.us/ssrajamouli+eega+hd+wallpapers+01+252892529.jpg&lt;/a&gt;\n\nInfo:\n\nFormat : AVI\nFormat/Info : Audio Video Interleave\nFile size : 697 MiB\nDuration : 2h 11mn\nOverall bit rate : 740 Kbps\n\nVideo\nID : 0\nFormat : MPEG-4 Visual\nFormat profile : Advanced Simple@L5\nFormat settings, BVOP : 2\nFormat settings, QPel : No\nFormat settings, GMC : No warppoints\nFormat settings, Matrix : Default (H.263)\nCodec ID : XVID\nCodec ID/Hint : XviD\nDuration : 2h 11mn\nBit rate : 604 Kbps\nWidth : 640 pixels\nHeight : 288 pixels\nDisplay aspect ratio : 2.222\nFrame rate : 23.976 fps\nColor space : YUV\nChroma subsampling : 4:2:0\nBit depth : 8 bits\nScan type : Progressive\nCompression mode : Lossy\nBits/(Pixel*Frame) : 0.137\nStream size : 569 MiB (82%)\nWriting library : XviD 1.2.1 (UTC 2008-12-04)\n\nAudio\nID : 1\nFormat : AC-3\nFormat/Info : Audio Coding 3\nMode extension : CM (complete main)\nFormat settings, Endianness : Big\nCodec ID : 2000\nDuration : 2h 11mn\nBit rate mode : Constant\nBit rate : 128 Kbps\nChannel(s) : 2 channels\nChannel positions : Front: L R\nSampling rate : 48.0 KHz\nBit depth : 16 bits\nCompression mode : Lossy\nStream size : 121 MiB (17%)\nAlignment : Aligned on interleaves\nInterleave, duration : 64 ms (1.53 video frames)\nInterleave, preload duration : 192 ms\n\n\nSCREENS:\n &lt;a href=&quot;\nhttp://imgh.us/eega1.png&quot; rel=&quot;nofollow&quot; target=&quot;_NEW&quot;&gt;\nhttp://imgh.us/eega1.png&lt;/a&gt; &lt;a href=&quot;\nhttp://imgh.us/eega2.png&quot; rel=&quot;nofollow&quot; target=&quot;_NEW&quot;&gt;\nhttp://imgh.us/eega2.png&lt;/a&gt; &lt;a href=&quot;\nhttp://imgh.us/eega3.png&quot; rel=&quot;nofollow&quot; target=&quot;_NEW&quot;&gt;\nhttp://imgh.us/eega3.png&lt;/a&gt; &lt;a href=&quot;\nhttp://imgh.us/eega4.png&quot; rel=&quot;nofollow&quot; target=&quot;_NEW&quot;&gt;\nhttp://imgh.us/eega4.png&lt;/a&gt; &lt;a href=&quot;\nhttp://imgh.us/eega5.png&quot; rel=&quot;nofollow&quot; target=&quot;_NEW&quot;&gt;\nhttp://imgh.us/eega5.png&lt;/a&gt; &lt;a href=&quot;\nhttp://imgh.us/eega6.png&quot; rel=&quot;nofollow&quot; target=&quot;_NEW&quot;&gt;\nhttp://imgh.us/eega6.png&lt;/a&gt;\n\n","torrent":{"xt":"urn:btih:61547ed09c2725e259d18ae3989ff4448229d986","amp;dn":"Eega+%282012%29+Telugu+Movie+DVDScr+NEW+SOURCE+XviD+-+Exclusive","amp;tr":["udp%3A%2F%2Ftracker.openbittorrent.com%3A80","udp%3A%2F%2Fopen.demonii.com%3A1337","udp%3A%2F%2Ftracker.coppersurfer.tk%3A6969","udp%3A%2F%2Fexodus.desync.com%3A6969"],"infoHash":"61547ed09c2725e259d18ae3989ff4448229d986","infoHashBuffer":{"type":"Buffer","data":[97,84,126,208,156,39,37,226,89,209,138,227,152,159,244,68,130,41,217,134]},"announce":[],"urlList":[]}}